<svg width="268" height="74" xmlns="http://www.w3.org/2000/svg"><g fill="none" fill-rule="evenodd"><path d="M6 74c-3.3 0-6-2.7-6-6V6c0-3.3 2.7-6 6-6h256c3.3 0 6 2.7 6 6v62c0 3.3-2.7 6-6 6H6z" fill="#FFF"/><path d="M51.9 20.2c-.6-1.9-2.6-2.9-4.5-2.3-1.9.6-2.9 2.6-2.3 4.5l9.2 28.3c.6 1.7 2.5 2.7 4.3 2.2 1.9-.5 3-2.6 2.4-4.4.1-.1-9.1-28.3-9.1-28.3z" fill="#E8A723"/><path d="M37.6 24.8c-.6-1.9-2.6-2.9-4.5-2.3-1.9.6-2.9 2.6-2.3 4.5L40 55.3c.6 1.7 2.5 2.7 4.3 2.2 1.9-.5 3-2.6 2.4-4.4.1 0-9.1-28.3-9.1-28.3z" fill="#3EB890"/><path d="M63.5 43.6c1.9-.6 2.9-2.6 2.3-4.5-.6-1.9-2.6-2.9-4.5-2.3L33 46.1c-1.7.6-2.7 2.5-2.2 4.3.5 1.9 2.6 3 4.4 2.4l28.3-9.2z" fill="#E01765"/><path d="M38.9 51.6c1.8-.6 4.2-1.4 6.8-2.2-.6-1.8-1.4-4.2-2.2-6.8l-6.8 2.2 2.2 6.8z" fill="#472A49"/><path d="M53.1 47c2.6-.8 4.9-1.6 6.8-2.2-.6-1.8-1.4-4.2-2.2-6.8l-6.8 2.2 2.2 6.8z" fill="#CC2027"/><path d="M58.9 29.4c1.9-.6 2.9-2.6 2.3-4.5-.6-1.9-2.6-2.9-4.5-2.3l-28.3 9.2c-1.7.6-2.7 2.5-2.2 4.3.5 1.9 2.6 3 4.4 2.4 0 .1 28.3-9.1 28.3-9.1z" fill="#70CADB"/><path d="M34.2 37.4c1.8-.6 4.2-1.4 6.8-2.2-.8-2.6-1.6-4.9-2.2-6.8L32 30.6l2.2 6.8z" fill="#1A937D"/><path d="M48.5 32.7c2.6-.8 4.9-1.6 6.8-2.2-.8-2.6-1.6-4.9-2.2-6.8L46.3 26l2.2 6.7z" fill="#65863A"/><path d="M101.618 47h-2.174c-.252 0-.455-.063-.61-.188a1.163 1.163 0 01-.347-.48l-1.944-5.016H87.22l-1.943 5.017a1.13 1.13 0 01-.348.464.931.931 0 01-.61.203h-2.175l8.31-20.779 2.855.002L101.618 47zm-13.615-7.714h7.757l-3.262-8.454a15.895 15.895 0 01-.624-1.957c-.106.396-.21.76-.31 1.095a14.42 14.42 0 01-.298.877l-3.263 8.44zM114.175 47c-.367 0-.6-.18-.695-.536l-.233-1.784a7.72 7.72 0 01-2.153 1.834c-.807.46-1.732.69-2.776.69-.842 0-1.605-.163-2.29-.487a4.744 4.744 0 01-1.756-1.428c-.483-.63-.855-1.412-1.117-2.35-.26-.938-.39-2.015-.39-3.233 0-1.083.144-2.09.434-3.024.29-.933.707-1.742 1.253-2.428a5.855 5.855 0 011.994-1.617c.783-.392 1.672-.587 2.668-.587.9 0 1.667.153 2.306.457.64.305 1.21.732 1.712 1.284v-8.148h2.58V47h-1.537zm-5.002-1.885c.84 0 1.578-.193 2.21-.58.634-.387 1.217-.933 1.75-1.638v-7.105c-.475-.64-.995-1.086-1.56-1.342a4.505 4.505 0 00-1.878-.384c-1.373 0-2.426.488-3.16 1.465-.736.977-1.103 2.37-1.103 4.176 0 .958.082 1.777.246 2.458.165.682.406 1.242.725 1.682.32.44.71.76 1.175.965.464.204.996.305 1.595.305zM130.387 47c-.368 0-.6-.18-.697-.536l-.232-1.784a7.72 7.72 0 01-2.153 1.834c-.807.46-1.732.69-2.777.69-.84 0-1.604-.163-2.29-.487a4.749 4.749 0 01-1.755-1.428c-.483-.63-.855-1.412-1.117-2.35-.26-.938-.39-2.015-.39-3.233 0-1.083.144-2.09.434-3.024.29-.933.708-1.742 1.254-2.428a5.855 5.855 0 011.994-1.617c.783-.392 1.672-.587 2.668-.587.9 0 1.667.153 2.306.457a5.511 5.511 0 011.71 1.284v-8.148h2.58V47h-1.535zm-5.003-1.885c.84 0 1.578-.193 2.21-.58.634-.387 1.217-.933 1.75-1.638v-7.105c-.475-.64-.995-1.086-1.56-1.342a4.505 4.505 0 00-1.878-.384c-1.373 0-2.426.488-3.16 1.465-.736.977-1.103 2.37-1.103 4.176 0 .958.082 1.777.246 2.458.164.682.405 1.242.725 1.682.32.44.71.76 1.174.965.463.204.995.305 1.594.305zm20.924 2.117c-1.16 0-2.052-.324-2.676-.97-.623-.65-.935-1.582-.935-2.8v-8.99h-1.77a.574.574 0 01-.39-.138c-.107-.092-.16-.234-.16-.428v-1.03l2.407-.303.595-4.54a.538.538 0 01.187-.354.595.595 0 01.406-.14h1.305v5.062h4.205v1.87h-4.205v8.816c0 .62.15 1.078.45 1.378.3.3.686.45 1.16.45.27 0 .505-.037.703-.11.2-.072.37-.152.516-.24.145-.086.268-.166.37-.238.1-.073.19-.11.268-.11.135 0 .256.083.362.248l.754 1.232c-.445.416-.98.742-1.61.98a5.476 5.476 0 01-1.942.354zm12.31-15.152c1.073 0 2.042.178 2.907.536.865.358 1.6.865 2.204 1.523.603.656 1.067 1.45 1.39 2.384.325.933.487 1.974.487 3.124 0 1.16-.162 2.204-.486 3.133-.323.93-.787 1.72-1.39 2.378-.605.658-1.34 1.163-2.205 1.516s-1.834.53-2.907.53-2.042-.177-2.907-.53a6.132 6.132 0 01-2.21-1.516c-.61-.657-1.078-1.45-1.407-2.377-.33-.928-.493-1.97-.493-3.132 0-1.15.164-2.19.493-3.124.33-.933.797-1.728 1.407-2.386a6.222 6.222 0 012.21-1.522c.866-.358 1.835-.536 2.908-.536zm0 13.108c1.45 0 2.533-.486 3.248-1.458.715-.97 1.073-2.327 1.073-4.067 0-1.75-.36-3.113-1.074-4.09-.715-.975-1.798-1.464-3.248-1.464-.735 0-1.373.125-1.914.377a3.58 3.58 0 00-1.356 1.087c-.362.474-.633 1.056-.812 1.747-.18.692-.268 1.473-.268 2.343 0 .87.09 1.648.268 2.335.18.686.45 1.263.812 1.732.363.47.815.83 1.356 1.08.54.252 1.18.377 1.914.377zm27.013-15.342c-.105.213-.228.363-.368.45a.929.929 0 01-.5.13c-.194 0-.41-.074-.653-.224-.243-.15-.528-.317-.857-.5a6.932 6.932 0 00-1.152-.5c-.44-.15-.96-.226-1.558-.226-.54 0-1.013.066-1.414.196-.4.13-.74.312-1.015.544-.275.232-.48.51-.616.834-.135.324-.203.68-.203 1.066 0 .493.138.903.413 1.232.276.33.64.61 1.095.84.454.233.97.44 1.552.624.58.184 1.172.38 1.776.588.604.208 1.196.45 1.776.725.58.275 1.097.623 1.552 1.044.454.42.82.934 1.094 1.543.276.61.413 1.348.413 2.218 0 .95-.16 1.836-.485 2.662a6.145 6.145 0 01-1.42 2.16c-.625.615-1.386 1.098-2.285 1.45-.9.354-1.928.53-3.09.53a10.3 10.3 0 01-3.834-.754 9.774 9.774 0 01-1.666-.87 8.186 8.186 0 01-1.385-1.13l1.13-1.872a1.44 1.44 0 01.384-.34.938.938 0 01.5-.138c.242 0 .503.1.784.297.28.198.61.418.993.66.383.242.832.462 1.35.66.516.198 1.137.297 1.863.297 1.11 0 1.97-.263 2.58-.79.61-.527.914-1.283.914-2.27 0-.55-.138-1-.413-1.348a3.337 3.337 0 00-1.095-.877 8.163 8.163 0 00-1.552-.602c-.58-.164-1.17-.343-1.77-.537-.6-.193-1.188-.425-1.768-.696a5.712 5.712 0 01-1.552-1.058 4.834 4.834 0 01-1.095-1.63c-.275-.654-.413-1.458-.413-2.416 0-.763.152-1.507.457-2.233a5.723 5.723 0 011.334-1.928c.586-.56 1.303-1.01 2.154-1.35.85-.337 1.822-.506 2.915-.506 1.236 0 2.376.194 3.42.58 1.045.388 1.934.93 2.67 1.625l-.96 1.84zm7.933-4.393V47h-3.58V25.453h3.58zM209.267 47h-1.61c-.338 0-.604-.05-.798-.152-.194-.102-.34-.307-.436-.617l-.32-1.057c-.376.338-.745.636-1.108.892-.362.256-.737.47-1.124.645a5.773 5.773 0 01-1.232.392c-.435.087-.918.13-1.45.13a5.72 5.72 0 01-1.74-.254 3.778 3.778 0 01-1.37-.76c-.382-.34-.68-.76-.892-1.263-.213-.502-.32-1.087-.32-1.754 0-.56.148-1.113.443-1.66.296-.545.787-1.038 1.473-1.478.686-.44 1.6-.805 2.74-1.095 1.14-.29 2.557-.454 4.25-.493v-.87c0-.996-.21-1.733-.632-2.21-.42-.48-1.03-.72-1.833-.72-.58 0-1.063.07-1.45.204a5.585 5.585 0 00-1.008.457c-.286.17-.55.32-.79.456a1.594 1.594 0 01-.798.205 1.03 1.03 0 01-.624-.19 1.475 1.475 0 01-.42-.463l-.653-1.145c1.71-1.567 3.775-2.35 6.19-2.35.872 0 1.647.143 2.33.428.68.285 1.258.682 1.73 1.19a5.066 5.066 0 011.082 1.82c.246.705.37 1.478.37 2.32V47zm-6.96-2.233a4.72 4.72 0 001.014-.102c.31-.067.603-.17.88-.304.274-.134.54-.3.796-.5.256-.197.515-.432.776-.703V40.65c-1.044.047-1.916.137-2.617.267-.7.13-1.264.297-1.69.5-.425.204-.727.44-.906.71a1.57 1.57 0 00-.27.886c0 .628.187 1.077.56 1.348.37.272.857.407 1.457.407zm20.938-9.498a1.91 1.91 0 01-.312.32c-.102.076-.25.114-.442.114a.985.985 0 01-.536-.166 18.57 18.57 0 00-.624-.377c-.24-.14-.53-.265-.862-.376-.334-.11-.747-.167-1.24-.167-.628 0-1.18.114-1.653.34a3.135 3.135 0 00-1.182.98c-.314.425-.548.94-.703 1.544-.155.605-.232 1.29-.232 2.053 0 .792.085 1.498.254 2.117.17.618.413 1.138.732 1.558.32.42.706.74 1.16.957.454.218.967.327 1.537.327s1.033-.07 1.386-.21c.353-.14.65-.296.89-.465a14.9 14.9 0 00.632-.464c.18-.14.38-.21.602-.21.29 0 .507.11.653.334l1.03 1.305a6.512 6.512 0 01-1.29 1.167 7.109 7.109 0 01-1.444.753 7.44 7.44 0 01-1.546.398c-.53.08-1.058.117-1.58.117-.918 0-1.783-.17-2.595-.514a6.06 6.06 0 01-2.126-1.5c-.604-.658-1.082-1.463-1.435-2.415-.354-.952-.53-2.037-.53-3.255 0-1.093.157-2.105.47-3.038a6.887 6.887 0 011.386-2.422 6.371 6.371 0 012.262-1.602c.9-.386 1.933-.58 3.103-.58 1.112 0 2.086.18 2.922.538a7.13 7.13 0 012.255 1.537l-.943 1.304zm7.003-9.817v12.34h.667c.242 0 .43-.034.566-.102.136-.067.28-.192.436-.376l3.697-4.568c.164-.193.338-.345.522-.456.184-.11.425-.167.725-.167h3.277l-4.625 5.525c-.165.203-.334.39-.508.558-.174.17-.362.316-.565.442.202.145.38.314.535.508.155.193.31.4.464.623l4.958 7.22h-3.233c-.28 0-.518-.048-.71-.145a1.387 1.387 0 01-.523-.493l-3.784-5.64c-.146-.223-.29-.368-.435-.436-.146-.067-.363-.1-.653-.1h-.812V47h-3.58V25.453h3.58z" fill="#3C444C"/></g></svg>